<svg xmlns="http://www.w3.org/2000/svg" viewBox="0 0 80 80">
  
  <path d="M24,34 Q24,26 18,26 Q12,26 12,32 Q12,38 24,44 Q36,38 36,32 Q36,26 30,26 Q24,26 24,34Z" fill="#ff4466" stroke="#cc2244" stroke-width="1"></path>
  
  <path d="M56,34 Q56,26 50,26 Q44,26 44,32 Q44,38 56,44 Q68,38 68,32 Q68,26 62,26 Q56,26 56,34Z" fill="#ff4466" stroke="#cc2244" stroke-width="1"></path>
  
  <path d="M28,58 Q40,68 52,58" stroke="#222" stroke-width="2.5" fill="none" stroke-linecap="round"></path>
  
  <ellipse cx="13" cy="52" rx="8" ry="5" fill="#ffb3b3" opacity="0.7"></ellipse>
  <ellipse cx="67" cy="52" rx="8" ry="5" fill="#ffb3b3" opacity="0.7"></ellipse>
</svg>